<?xml version="1.0" encoding="utf-8"?>
<!-- Generator: Adobe Illustrator 16.0.0, SVG Export Plug-In . SVG Version: 6.00 Build 0)  -->
<!DOCTYPE svg PUBLIC "-//W3C//DTD SVG 1.1//EN" "http://www.w3.org/Graphics/SVG/1.1/DTD/svg11.dtd">
<svg version="1.1" id="Layer_1" xmlns="http://www.w3.org/2000/svg" xmlns:xlink="http://www.w3.org/1999/xlink" x="0px" y="0px"
	 width="136px" height="136px" viewBox="0 0 136 136" enable-background="new 0 0 136 136" xml:space="preserve">

	<style type="text/css" >
    <![CDATA[

			#background {
				fill: #61BAE0;
				-webkit-transition: all 600ms ease-out;
				-moz-transition: all 600ms ease-out;
				-ms-transition: all 600ms ease-out;
				-o-transition: all 600ms ease-out;
				transition: all 600ms ease-out;
			}
			svg:hover #background {
				fill: #f5f5f5;
			}

			#bulb {
				-webkit-transition: all 900ms ease-out;
				-moz-transition: all 900ms ease-out;
				-ms-transition: all 900ms ease-out;
				-o-transition: all 900ms ease-out;
				transition: all 900ms ease-out;
			}
			svg:hover #bulb {
				fill: #61BAE0;
			}

			#bulb-bottom-b, #bulb-bottom-a {
				-webkit-transition: all 600ms ease-out;
				-moz-transition: all 600ms ease-out;
				-ms-transition: all 600ms ease-out;
				-o-transition: all 600ms ease-out;
				transition: all 600ms ease-out;
			}


			svg:hover #bulb-bottom-a, svg:hover #bulb-bottom-b {
				fill: #61BAE0;
			}


			#fillament {
				fill: #61BAE0;
			}
			svg:hover #fillament {
				fill: #fff;
			}

    ]]>
  </style>

<circle fill="#61BAE0" id="background" cx="68" cy="68" r="68"/>
<g>
	<path fill="#FFFFFF" id="bulb" d="M98.25,42.133c0-14.363-13.543-26.007-30.25-26.007S37.75,27.77,37.75,42.133
		c0,0.412,0.011,0.827,0.032,1.246c0.656,22.553,18.858,29.976,18.858,57.11c0,3.165,22.721,3.165,22.721,0
		c0-27.134,18.202-34.557,18.858-57.11C98.24,42.959,98.25,42.544,98.25,42.133z"/>
	<path fill="#FFFFFF" id="bulb-bottom-a" d="M79.75,106.78c0,1.231-1.039,2.229-2.32,2.229c0,0-4.711,0.672-9.43,0.672c-4.79,0-9.43-0.672-9.43-0.672
		c-1.281,0-2.318-0.998-2.318-2.229l0,0c0-1.231,1.038-2.229,2.318-2.229c0,0,5.469,0.719,9.431,0.719
		c4.964,0,9.43-0.719,9.43-0.719C78.711,104.551,79.75,105.549,79.75,106.78L79.75,106.78z"/>
	<path fill="#FFFFFF" id="bulb-bottom-b" d="M79.75,112.973c0,1.231-1.039,2.229-2.32,2.229c0,0-4.711,0.673-9.43,0.673c-4.79,0-9.43-0.673-9.43-0.673
		c-1.281,0-2.318-0.998-2.318-2.229l0,0c0-1.231,1.038-2.229,2.318-2.229c0,0,5.469,0.718,9.431,0.718
		c4.964,0,9.43-0.718,9.43-0.718C78.711,110.744,79.75,111.742,79.75,112.973L79.75,112.973z"/>
</g>

<path fill="#FED800;" id="fillament" d="M71.896,96.704c-0.021-0.284-1.98-27.994,5.791-47.809c-0.734,0.354-1.676,0.65-2.586,0.484
	c-0.623-0.113-1.152-0.42-1.582-0.915c-0.514,0.504-1.439,1.21-2.625,1.256c-1.004,0.038-1.982-0.404-2.895-1.317
	c-0.912,0.913-1.886,1.354-2.895,1.317c-1.185-0.045-2.111-0.752-2.624-1.256c-0.43,0.495-0.959,0.802-1.583,0.915
	c-0.911,0.166-1.851-0.13-2.586-0.484c7.772,19.815,5.812,47.525,5.791,47.809l-0.997-0.074c0.021-0.289,2.059-29.111-6.295-48.767
	c-0.09-0.211-0.024-0.456,0.159-0.594c0.183-0.139,0.437-0.135,0.615,0.009c0.018,0.014,1.729,1.377,3.137,1.117
	c0.533-0.097,0.953-0.418,1.284-0.981c0.085-0.145,0.238-0.236,0.405-0.245c0.172-0.005,0.329,0.067,0.429,0.202
	c0.009,0.013,0.98,1.303,2.309,1.351c0.818,0.03,1.661-0.435,2.472-1.379c0.189-0.222,0.569-0.222,0.759,0
	c0.812,0.947,1.64,1.41,2.478,1.379c1.336-0.051,2.293-1.336,2.303-1.35c0.098-0.136,0.264-0.212,0.428-0.204
	c0.168,0.009,0.32,0.101,0.406,0.246c0.332,0.563,0.752,0.885,1.285,0.981c1.182,0.21,2.662-0.734,3.135-1.117
	c0.18-0.146,0.434-0.148,0.617-0.011c0.182,0.138,0.248,0.384,0.158,0.595c-8.355,19.661-6.316,48.478-6.295,48.767L71.896,96.704z"
	/>
</svg>
